<?xml version="1.0" encoding="UTF-8"?>
<svg width="20px" height="22px" viewBox="0 0 20 22" version="1.1" xmlns="http://www.w3.org/2000/svg" xmlns:xlink="http://www.w3.org/1999/xlink">
    <!-- Generator: Sketch 52.3 (67297) - http://www.bohemiancoding.com/sketch -->
    <title>path-1</title>
    <desc>Created with Sketch.</desc>
    <defs>
        <path d="M18,8 L18,5 C18,4.44771525 17.5522847,4 17,4 L15,4 L15,5 C15,5.55228475 14.5522847,6 14,6 C13.4477153,6 13,5.55228475 13,5 L13,4 L7,4 L7,5 C7,5.55228475 6.55228475,6 6,6 C5.44771525,6 5,5.55228475 5,5 L5,4 L3,4 C2.44771525,4 2,4.44771525 2,5 L2,8 L18,8 Z M18,10 L2,10 L2,19 C2,19.5522847 2.44771525,20 3,20 L17,20 C17.5522847,20 18,19.5522847 18,19 L18,10 Z M7,2 L13,2 L13,1 C13,0.44771525 13.4477153,0 14,0 C14.5522847,0 15,0.44771525 15,1 L15,2 L17,2 C18.6568542,2 20,3.34314575 20,5 L20,19 C20,20.6568542 18.6568542,22 17,22 L3,22 C1.34314575,22 0,20.6568542 0,19 L0,5 C0,3.34314575 1.34314575,2 3,2 L5,2 L5,1 C5,0.44771525 5.44771525,0 6,0 C6.55228475,0 7,0.44771525 7,1 L7,2 Z" id="path-1"></path>
    </defs>
    <g id="Page-1" stroke="none" stroke-width="1" fill="none" fill-rule="evenodd">
        <g id="calendar">
            <g id="COLOR_BLOCKS/PRIMARY/BLACK/FILL/squared-Clipped">
                <mask id="mask-2" fill="white">
                    <use xlink:href="#path-1"></use>
                </mask>
                <use id="path-1" fill="#FFFFFF" xlink:href="#path-1"></use>
            </g>
        </g>
    </g>
</svg>