<?xml version="1.0" encoding="UTF-8"?>
<svg width="86px" height="53px" viewBox="0 0 86 53" version="1.1" xmlns="http://www.w3.org/2000/svg" xmlns:xlink="http://www.w3.org/1999/xlink">
    <!-- Generator: Sketch 52.6 (67491) - http://www.bohemiancoding.com/sketch -->
    <title>Group</title>
    <desc>Created with Sketch.</desc>
    <g id="Page-1" stroke="none" stroke-width="1" fill="none" fill-rule="evenodd">
        <g id="-" transform="translate(-1164.000000, -885.000000)">
            <g id="Group" transform="translate(1207.000000, 911.500000) scale(1, -1) translate(-1207.000000, -911.500000) translate(1164.000000, 885.000000)">
                <path d="M41.0385965,48 C45.4606699,48 48.8842105,44.5044248 48.8842105,40.0300885 L48.8842105,8.5699115 C48.8842105,4.23539823 45.4606699,0.6 41.0385965,0.6 C36.6165231,0.6 33.1929825,4.09557522 33.1929825,8.5699115 L33.1929825,40.0300885 C33.1929825,44.5044248 36.6165231,48 41.0385965,48 Z" id="Path" fill="#DAD2D8"></path>
                <path d="M32.5894737,40.0300885 C32.5894737,44.3646018 36.0305325,48 40.4350877,48 C44.7020006,48 48.2807018,44.5044248 48.2807018,40.0300885 L48.2807018,8.5699115 C48.2807018,4.23539823 44.839643,0.6 40.4350877,0.6" id="Path" fill="#944804"></path>
                <path d="M45.9716247,46.3043478 C49.0503941,43.2434783 49.0503941,38.2347826 45.9716247,35.0347826 L13.5046021,2.89565217 C10.4258327,-0.165217391 5.38784643,-0.165217391 2.30907704,2.89565217 C-0.769692347,5.95652174 -0.769692347,10.9652174 2.30907704,14.1652174 L34.6361556,46.3043478 C37.8548691,49.3652174 42.8928553,49.3652174 45.9716247,46.3043478 Z" id="Path" fill="#DAD2D8"></path>
                <path d="M45.9768966,46.2 C49.0486368,43.1461187 49.0486368,38.1488584 45.9768966,34.9561644 L13.5839996,2.89041096 C10.5122593,-0.16347032 5.48577532,-0.16347032 2.41403509,2.89041096" id="Path" fill="#FF7900"></path>
                <path d="M85.6982456,52.8 L60.4385733,47.9175694 L64.8377297,43.5931308 L34.3274514,13.6010568 C31.2054694,10.5321004 31.2054694,5.51017173 34.3274514,2.30171731 C37.4494334,-0.767239102 42.5581311,-0.767239102 45.8220214,2.30171731 L76.3322997,32.2937913 L80.7314561,27.9693527 L85.6982456,52.8 Z" id="Path" fill="#DAD2D8"></path>
                <path d="M34.4,2.30171731 C37.5175729,-0.767239102 42.6190559,-0.767239102 45.8783367,2.30171731 L76.3455268,32.2937913 L80.7384705,27.9693527 L85.6982456,52.8" id="Path" fill="#FF7900"></path>
            </g>
        </g>
    </g>
</svg>