<?xml version="1.0" encoding="UTF-8"?>
<svg width="320px" height="98px" viewBox="0 0 320 98" version="1.1" xmlns="http://www.w3.org/2000/svg" xmlns:xlink="http://www.w3.org/1999/xlink">
    <!-- Generator: Sketch 52.6 (67491) - http://www.bohemiancoding.com/sketch -->
    <title>logo naranja</title>
    <desc>Created with Sketch.</desc>
    <g id="Page-1" stroke="none" stroke-width="1" fill="none" fill-rule="evenodd">
        <g id="-" transform="translate(-67.000000, -60.000000)">
            <g id="logo-naranja" transform="translate(67.000000, 60.000000)">
                <path d="M5.4,94.41 C5.8689955,94.410706 6.33387215,94.3224812 6.77,94.15 C7.19283766,93.9797821 7.58218451,93.7360172 7.92,93.43 C8.24930424,93.1271066 8.5174788,92.7638828 8.71,92.36 C8.90285737,91.9538715 9.00196649,91.5095892 9,91.06 C9.00044733,90.6073636 8.90144714,90.1601559 8.71,89.75 C8.51481334,89.3477227 8.24698519,88.9849681 7.92,88.68 C7.58149991,88.3848818 7.19170924,88.1543969 6.77,88 C6.33807935,87.8091173 5.87216666,87.7070926 5.4,87.7 L3,87.7 L3,94.4100042 L5.4,94.41 Z M0,97.25 L0,84.86 L5.4,84.86 C5.9868305,84.8616506 6.57122589,84.9355397 7.14,85.08 C7.69076327,85.2236392 8.22150889,85.4352656 8.72,85.71 C9.20333752,85.9865093 9.65014698,86.3224563 10.05,86.71 C10.4338686,87.0835957 10.7697803,87.5034852 11.05,87.96 C11.3322065,88.4231732 11.5540064,88.9205427 11.71,89.44 C11.8848001,89.9630579 11.982492,90.5087849 12,91.06 C12.0023892,91.6155874 11.9214906,92.168395 11.76,92.7 C11.6040064,93.2194573 11.3822065,93.7168268 11.1,94.18 C10.8248995,94.6400906 10.488481,95.0606138 10.1,95.43 C9.70014698,95.8175437 9.25333752,96.1534907 8.77,96.43 C8.25481462,96.6925367 7.70652291,96.8842706 7.14,97 C6.57259443,97.1526322 5.9875761,97.2299622 5.4,97.23 L0,97.25 Z" id="Fill-1" fill="#575756" fill-rule="nonzero"></path>
                <polygon id="Fill-3" fill="#575756" points="23.01 97.25 26 97.25 26 84.86 23.01 84.86"></polygon>
                <path d="M48.78,90.3 L48.78,95.68 C48.4461582,96.0091132 48.0694244,96.2916635 47.66,96.52 C47.2655402,96.7301101 46.8498741,96.8977173 46.42,97.02 C45.9900733,97.1516757 45.5477478,97.2388005 45.1,97.28 C44.6417817,97.3315622 44.181107,97.358268 43.72,97.36 C43.1392945,97.3557026 42.5614319,97.2784303 42,97.13 C40.8771996,96.8573021 39.8438414,96.2992887 39,95.51 C38.593898,95.1363636 38.2406437,94.709094 37.95,94.24 C37.6644015,93.7666645 37.4393107,93.2593705 37.28,92.73 C36.96,91.6328571 36.96,90.4671429 37.28,89.37 C37.4393107,88.8406295 37.6644015,88.3333355 37.95,87.86 C38.2430134,87.3896065 38.5959751,86.9593294 39,86.58 C39.4088729,86.1900805 39.8659098,85.854024 40.36,85.58 C40.8824246,85.3239598 41.4327626,85.1293281 42,85 C42.578972,84.8555711 43.1732879,84.7817013 43.77,84.78 C44.2582043,84.7816936 44.7446432,84.8387243 45.22,84.95 C45.7012595,85.0681973 46.1700728,85.2322819 46.62,85.44 C47.0814883,85.655847 47.5203224,85.9171376 47.93,86.22 C48.3573632,86.5149965 48.7558108,86.8498265 49.12,87.22 L48.36,87.97 C47.9806559,88.3454211 47.4634038,88.5479813 46.93,88.53 C46.5399746,88.5328752 46.1576197,88.4216447 45.83,88.21 C45.5165103,88.0167634 45.1807205,87.8623001 44.83,87.75 C44.4772063,87.640271 44.1094456,87.5862878 43.74,87.59 C43.2504583,87.5877823 42.7650306,87.6794365 42.31,87.86 C41.8783432,88.0381285 41.4820853,88.29214 41.14,88.61 C40.7985049,88.9221253 40.5230741,89.2995675 40.33,89.72 C39.9234188,90.5880847 39.9234188,91.5919153 40.33,92.46 C40.5313737,92.8805317 40.8173326,93.2550017 41.17,93.56 C41.5268129,93.873216 41.936539,94.1204061 42.38,94.29 C42.8393615,94.4665127 43.3279153,94.5547238 43.82,94.55 C44.1552624,94.5479917 44.4897666,94.5178863 44.82,94.46 C45.1437227,94.4009429 45.4592723,94.3035925 45.76,94.17 L45.76,93 C45.4875342,92.9967186 45.2173876,92.9494429 44.96,92.86 C44.7340638,92.7813534 44.5240705,92.6628088 44.34,92.51 C44.1944623,92.3638238 44.0789558,92.1905641 44,92 C43.8986354,91.7949133 43.8472352,91.5687525 43.85,91.34 L43.85,90.34 L48.78,90.3 Z" id="Fill-5" fill="#575756"></path>
                <polygon id="Fill-6" fill="#575756" points="60.24 97.25 63.23 97.25 63.23 84.86 60.24 84.86"></polygon>
                <polygon id="Fill-7" fill="#575756" points="73.82 87.5 73.82 84.85 84.06 84.85 84.06 87.5 80.44 87.5 80.44 97.25 77.46 97.25 77.46 87.5"></polygon>
                <path d="M96.66,92.21 L99.45,92.21 L98.31,89.61 C98.2569792,89.5040671 98.2134748,89.3936329 98.18,89.28 C98.1507509,89.188246 98.1273703,89.0947237 98.11,89 C98.1014438,88.9135445 98.1014438,88.8264555 98.11,88.74 C98.11,88.82 98.11,88.91 98.11,89.01 L98.03,89.29 C97.9971726,89.3992206 97.9570833,89.5061254 97.91,89.61 L96.66,92.21 Z M96.78,84.86 L99.35,84.86 L105.05,97.25 L103.12,97.25 C102.731663,97.261344 102.346652,97.1754042 102,97 C101.678669,96.8091084 101.42115,96.5272298 101.26,96.19 L100.63,94.81 L95.43,94.81 L94.82,96.19 C94.7384542,96.3478469 94.6339883,96.4927512 94.51,96.62 C94.3769038,96.7527766 94.2293114,96.8701796 94.07,96.97 C93.9048931,97.0709489 93.726506,97.1483621 93.54,97.2 C93.3589952,97.2582989 93.1701569,97.2886479 92.98,97.29 L91.07,97.29 L96.78,84.86 Z" id="Fill-8" fill="#575756" fill-rule="nonzero"></path>
                <polygon id="Fill-9" fill="#575756" points="114.6 97.25 114.6 84.86 117.58 84.86 117.58 94.6 122.74 94.6 122.74 97.25"></polygon>
                <path d="M150.8,87.57 C150.646826,87.5601111 150.493174,87.5601111 150.34,87.57 C150.204201,87.5934711 150.072722,87.6372977 149.95,87.7 C149.843687,87.750777 149.748514,87.822157 149.67,87.91 C149.598683,88.0014199 149.559965,88.1140528 149.56,88.23 C149.555587,88.3868765 149.60897,88.539906 149.71,88.66 C149.838377,88.7768758 149.987655,88.8684783 150.15,88.93 C150.39251,89.0194521 150.63951,89.0962226 150.89,89.16 L151.89,89.47 C152.368477,89.6202819 152.830767,89.8179275 153.27,90.06 C153.663988,90.2808449 154.024313,90.556982 154.34,90.88 C154.954529,91.5138022 155.289488,92.3674063 155.27,93.25 C155.280113,93.8251732 155.142382,94.3933104 154.87,94.9 C154.604778,95.3982957 154.240688,95.8372458 153.8,96.19 C153.337543,96.5521395 152.816755,96.8328238 152.26,97.02 C151.674086,97.219913 151.059079,97.3212879 150.44,97.32 C149.924599,97.3208845 149.412065,97.24333 148.92,97.09 C148.448166,96.9509801 147.999848,96.7419895 147.59,96.47 C147.18832,96.1919542 146.830953,95.8548162 146.53,95.47 C146.227442,95.1054319 145.987513,94.6931596 145.82,94.25 L146.82,93.74 C146.970615,93.6527288 147.131978,93.585494 147.3,93.54 C147.472564,93.4921932 147.650941,93.4686339 147.83,93.47 C148.071668,93.4664878 148.310991,93.5177714 148.53,93.62 C148.74,93.73 148.95,93.84 149.15,93.96 C149.350135,94.081855 149.557147,94.1920388 149.77,94.29 C149.993362,94.401249 150.240543,94.4561783 150.49,94.45 C150.692764,94.451628 150.894746,94.424697 151.09,94.37 C151.298917,94.314401 151.500371,94.2338197 151.69,94.13 C151.868181,94.0368373 152.024878,93.9073924 152.15,93.75 C152.273864,93.5973822 152.341007,93.4065539 152.34,93.21 C152.343502,93.0406927 152.282763,92.8763395 152.17,92.75 C152.038129,92.6153856 151.882073,92.506825 151.71,92.43 C151.497122,92.3316278 151.276343,92.2513445 151.05,92.19 L150.27,91.92 C149.82,91.76 149.37,91.58 148.94,91.39 C148.516988,91.2107715 148.120078,90.9753164 147.76,90.69 C147.416739,90.4153788 147.13125,90.0755103 146.92,89.69 C146.689794,89.2281237 146.579737,88.7156682 146.6,88.2 C146.588947,87.6805387 146.712996,87.1671119 146.96,86.71 C147.192351,86.2782288 147.516649,85.9027254 147.91,85.61 C148.315694,85.3020376 148.772764,85.068424 149.26,84.92 C149.764687,84.7607822 150.290793,84.6798428 150.82,84.68 C151.208043,84.6780077 151.593579,84.7422637 151.96,84.87 C152.309642,84.9935312 152.64492,85.1544644 152.96,85.35 C153.289037,85.544724 153.597307,85.7725751 153.88,86.03 C154.154025,86.272272 154.411284,86.5328714 154.65,86.81 L153.73,87.54 C153.563557,87.6840612 153.369659,87.7929165 153.16,87.86 C152.946438,87.9270183 152.723829,87.9607469 152.5,87.96 C152.335959,87.9962198 152.167713,88.0096796 152,88 L151.59,87.85 C151.463498,87.7913412 151.333206,87.7412288 151.2,87.7 C151.066436,87.6466109 150.923838,87.6194494 150.78,87.62" id="Fill-10" fill="#575756"></path>
                <path d="M168.08,91.05 C168.081992,91.5163112 168.184308,91.9767333 168.38,92.4 C168.575787,92.8214499 168.854699,93.1990021 169.2,93.51 C169.540539,93.8347135 169.941432,94.0895183 170.38,94.26 C171.295981,94.6195455 172.314019,94.6195455 173.23,94.26 C173.671543,94.0895208 174.075713,93.8347915 174.42,93.51 C174.759332,93.1959437 175.034427,92.8189617 175.23,92.4 C175.644005,91.5476111 175.644005,90.5523889 175.23,89.7 C175.036926,89.2795675 174.761495,88.9021253 174.42,88.59 C174.07075,88.2716699 173.667855,88.0177445 173.23,87.84 C172.314019,87.4804545 171.295981,87.4804545 170.38,87.84 C169.945685,88.0187843 169.546251,88.272662 169.2,88.59 C168.852374,88.8988812 168.57308,89.2769502 168.38,89.7 C168.184308,90.1232667 168.081992,90.5836888 168.08,91.05 M165.08,91.05 C165.06693,89.9194178 165.38689,88.809991 166,87.86 C166.277072,87.3922214 166.613163,86.962025 167,86.58 C167.408873,86.1900805 167.86591,85.854024 168.36,85.58 C168.883168,85.3257334 169.433299,85.1311748 170,85 C170.582362,84.8555403 171.17999,84.7816761 171.78,84.78 C172.376756,84.7810095 172.971155,84.8548897 173.55,85 C174.109253,85.1514308 174.64941,85.3661517 175.16,85.64 C175.652562,85.9116695 176.106585,86.247983 176.51,86.64 C176.914266,87.0217908 177.270249,87.4516577 177.57,87.92 C177.859583,88.3912494 178.08491,88.8990749 178.24,89.43 C178.56,90.5271429 178.56,91.6928571 178.24,92.79 C178.08491,93.3209251 177.859583,93.8287506 177.57,94.3 C177.272733,94.7671419 176.916461,95.1939959 176.51,95.57 C176.106276,95.9616535 175.652304,96.2979292 175.16,96.57 C174.651,96.8447999 174.110326,97.056368 173.55,97.2 C172.972512,97.3533099 172.377491,97.430629 171.78,97.43 C171.179255,97.4300313 170.581006,97.3527294 170,97.2 C169.443415,97.0546702 168.906251,96.8431622 168.4,96.57 C167.906145,96.2956093 167.449153,95.9595855 167.04,95.57 C166.650907,95.1937115 166.314522,94.7665022 166.04,94.3 C165.42689,93.350009 165.10693,92.2405822 165.12,91.11" id="Fill-11" fill="#575756" fill-rule="nonzero"></path>
                <polygon id="Fill-12" fill="#575756" points="189.22 97.25 189.22 84.86 192.2 84.86 192.2 94.6 197.36 94.6 197.36 97.25"></polygon>
                <path d="M210.42,92.26 C210.420806,92.56451 210.489112,92.8650542 210.62,93.14 C210.755964,93.4130157 210.93873,93.6600873 211.16,93.87 C211.388501,94.0788008 211.652711,94.2447789 211.94,94.36 C212.235265,94.4801759 212.551218,94.5413281 212.87,94.54 C213.192002,94.5410965 213.511183,94.4799767 213.81,94.36 C214.094768,94.2398846 214.358184,94.0744055 214.59,93.87 C214.817124,93.6653333 215.000765,93.4170776 215.13,93.14 C215.265635,92.8667226 215.334196,92.5650572 215.33,92.26 L215.33,84.86 L218.33,84.86 L218.33,92.26 C218.33792,92.9504229 218.190985,93.6338415 217.9,94.26 C217.624524,94.8715446 217.230214,95.4222188 216.74,95.88 C215.69216,96.8470972 214.315886,97.3797334 212.89,97.37 C212.404024,97.3761831 211.919501,97.3156176 211.45,97.19 C210.99908,97.0786042 210.56519,96.9070665 210.16,96.68 C209.761252,96.4604916 209.391687,96.1917169 209.06,95.88 C208.393465,95.2727372 207.905849,94.4946266 207.65,93.63 C207.517183,93.1888869 207.449799,92.7306747 207.45,92.27 L207.45,84.87 L210.45,84.87 L210.42,92.26 Z" id="Fill-13" fill="#575756"></path>
                <polygon id="Fill-14" fill="#575756" points="228.32 87.5 228.32 84.85 238.56 84.85 238.56 87.5 234.94 87.5 234.94 97.25 231.96 97.25 231.96 87.5"></polygon>
                <polygon id="Fill-15" fill="#575756" points="249.19 97.25 252.18 97.25 252.18 84.86 249.19 84.86"></polygon>
                <path d="M266.19,91.05 C266.18707,91.516849 266.289621,91.9783308 266.49,92.4 C266.685573,92.8189617 266.960668,93.1959437 267.3,93.51 C268.015504,94.1625747 268.95165,94.5198822 269.92,94.51 C270.406226,94.5114339 270.888232,94.4197849 271.34,94.24 C271.781543,94.0695208 272.185713,93.8147915 272.53,93.49 C272.869332,93.1759437 273.144427,92.7989617 273.34,92.38 C273.739654,91.5243676 273.739654,90.5356324 273.34,89.68 C273.146926,89.2595675 272.871495,88.8821253 272.53,88.57 C272.18075,88.2516699 271.777855,87.9977445 271.34,87.82 C270.888232,87.6402151 270.406226,87.5485661 269.92,87.55 C269.430276,87.5457589 268.944463,87.6374859 268.49,87.82 C268.053546,88.0004646 267.6511,88.2541072 267.3,88.57 C266.958505,88.8821253 266.683074,89.2595675 266.49,89.68 C266.289621,90.1016692 266.18707,90.563151 266.19,91.03 M263.19,91.03 C263.188342,90.4613409 263.269184,89.8954485 263.43,89.35 C263.588461,88.818649 263.817148,88.3108303 264.11,87.84 C264.403013,87.3696065 264.755975,86.9393294 265.16,86.56 C265.568873,86.1700805 266.02591,85.834024 266.52,85.56 C267.027085,85.2861414 267.563933,85.0714022 268.12,84.92 C269.285152,84.6266454 270.504848,84.6266454 271.67,84.92 C272.228663,85.0731978 272.768626,85.2878414 273.28,85.56 C273.771,85.8340945 274.22472,86.1701833 274.63,86.56 C275.034025,86.9393294 275.386987,87.3696065 275.68,87.84 C275.972852,88.3108303 276.201539,88.818649 276.36,89.35 C276.68,90.4471429 276.68,91.6128571 276.36,92.71 C276.201539,93.241351 275.972852,93.7491697 275.68,94.22 C275.389356,94.689094 275.036102,95.1163636 274.63,95.49 C274.224365,95.8793964 273.770702,96.2154433 273.28,96.49 C272.770263,96.7632052 272.229786,96.9746962 271.67,97.12 C270.506326,97.4250445 269.283674,97.4250445 268.12,97.12 C267.562802,96.9765542 267.025415,96.7649581 266.52,96.49 C266.026145,96.2156093 265.569153,95.8795855 265.16,95.49 C264.753898,95.1163636 264.400644,94.689094 264.11,94.22 C263.817148,93.7491697 263.588461,93.241351 263.43,92.71 C263.269184,92.1645515 263.188342,91.5986591 263.19,91.03" id="Fill-16" fill="#575756" fill-rule="nonzero"></path>
                <path d="M299.52,97.25 L296.52,97.25 L290.28,88.68 L290.28,97.25 L287.28,97.25 L287.28,84.86 L290.21,84.86 C290.474879,84.8561265 290.738534,84.8966887 290.99,84.98 C291.195548,85.0502938 291.376217,85.178847 291.51,85.35 L296.07,91.7 C296.141948,91.7905341 296.199307,91.8917551 296.24,92 C296.290026,92.1003975 296.333452,92.2039505 296.37,92.31 C296.406719,92.3862907 296.433601,92.4669359 296.45,92.55 C296.453242,92.5932727 296.453242,92.6367273 296.45,92.68 L296.45,84.86 L299.45,84.86 L299.52,97.25 Z" id="Fill-17" fill="#575756"></path>
                <path d="M314.93,87.57 C314.773503,87.559676 314.616497,87.559676 314.46,87.57 C314.324201,87.5934711 314.192722,87.6372977 314.07,87.7 C313.963687,87.750777 313.868514,87.822157 313.79,87.91 C313.721557,88.0023494 313.686319,88.115112 313.69,88.23 C313.677704,88.3862386 313.728075,88.5409496 313.83,88.66 C313.956807,88.7789489 314.106518,88.870817 314.27,88.93 C314.51251,89.0194521 314.75951,89.0962226 315.01,89.16 L316.01,89.47 C316.487788,89.6221409 316.949899,89.8197103 317.39,90.06 C317.780919,90.2809501 318.137927,90.5571265 318.45,90.88 C318.739932,91.1904879 318.973437,91.5492056 319.14,91.94 C319.307252,92.3563945 319.392153,92.8012763 319.39,93.25 C319.397046,93.8260539 319.255859,94.3942437 318.98,94.9 C318.749441,95.4066973 318.415657,95.8596908 318,96.23 C317.537543,96.5921395 317.016755,96.8728238 316.46,97.06 C315.877534,97.2599029 315.265814,97.361293 314.65,97.36 C313.634691,97.3580841 312.641549,97.0629196 311.79,96.51 C311.38832,96.2319542 311.030953,95.8948162 310.73,95.51 C310.431039,95.1429311 310.191464,94.7312679 310.02,94.29 L310.97,93.78 C311.120615,93.6927288 311.281978,93.625494 311.45,93.58 C311.622564,93.5321932 311.800941,93.5086339 311.98,93.51 C312.221771,93.5054251 312.461332,93.5567595 312.68,93.66 C312.89,93.77 313.1,93.88 313.3,94 C313.500135,94.121855 313.707147,94.2320388 313.92,94.33 C314.146505,94.4424621 314.397221,94.4974134 314.65,94.49 C314.849434,94.4909559 315.048022,94.4640287 315.24,94.41 C315.448917,94.354401 315.650371,94.2738197 315.84,94.17 C316.018181,94.0768373 316.174878,93.9473924 316.3,93.79 C316.428615,93.6400831 316.496403,93.4474234 316.49,93.25 C316.493502,93.0806927 316.432763,92.9163395 316.32,92.79 C316.188129,92.6553856 316.032073,92.546825 315.86,92.47 C315.647122,92.3716278 315.426343,92.2913445 315.2,92.23 L314.42,91.96 C313.97,91.8 313.53,91.62 313.09,91.43 C312.666988,91.2507715 312.270078,91.0153164 311.91,90.73 C311.569401,90.4526641 311.284383,90.1133569 311.07,89.73 C310.839794,89.2681237 310.729737,88.7556682 310.75,88.24 C310.738947,87.7205387 310.862996,87.2071119 311.11,86.75 C311.342351,86.3182288 311.666649,85.9427254 312.06,85.65 C312.4669,85.3439629 312.923618,85.1105296 313.41,84.96 C313.917957,84.8000795 314.447465,84.7191356 314.98,84.72 C315.364719,84.7187543 315.746843,84.7830053 316.11,84.91 C316.460394,85.0317133 316.795868,85.1927406 317.11,85.39 C317.439037,85.584724 317.747307,85.8125751 318.03,86.07 C318.309617,86.3096134 318.570387,86.5703828 318.81,86.85 L317.89,87.58 C317.722202,87.7221224 317.528709,87.8307505 317.32,87.9 C317.106097,87.9655328 316.883715,87.9992271 316.66,88 C316.487569,88.0005484 316.315907,87.976987 316.15,87.93 L315.74,87.78 C315.613498,87.7213412 315.483206,87.6712288 315.35,87.63 C315.219917,87.5766556 315.080595,87.549471 314.94,87.55" id="Fill-18" fill="#575756"></path>
                <path d="M80.08,22 L90.2,45.46 L70,45.46 L80.08,22 Z M85,6.09 L75.19,6.09 L47.48,70.09 L54.15,70.09 C57.2533918,70.1053255 60.0666748,68.2678385 61.3,65.42 L65.21,56.33 L94.91,56.33 L98.91,65.42 C99.5046874,66.8230533 100.503838,68.0171601 101.78,68.85 C103.033037,69.6763144 104.499062,70.1209854 106,70.13 L112.68,70.13 L85,6.09 Z" id="Fill-19" fill="#FF7900" fill-rule="nonzero"></path>
                <polygon id="Fill-20" fill="#FF7900" points="123.07 70.13 133.89 70.13 133.89 6.09 123.07 6.09"></polygon>
                <path d="M156.89,16.9998451 L169.2,17 C170.2969,16.9931358 171.383239,17.2144899 172.39,17.65 C173.371155,18.0809035 174.263135,18.6913839 175.02,19.45 C175.769447,20.2140188 176.372721,21.108762 176.8,22.09 C177.65284,24.155426 177.65284,26.474574 176.8,28.54 C176.366724,29.5227991 175.756599,30.4176482 175,31.18 C174.259291,31.9492199 173.376288,32.5673215 172.4,33 C171.387882,33.4284899 170.299067,33.646253 169.2,33.64 L156.89,33.6401309 L156.89,16.9998451 Z M176.55,43 C177.88369,42.4400065 179.148647,41.7286782 180.32,40.88 C181.926081,39.7186565 183.345724,38.3192462 184.53,36.73 C185.723156,35.1211125 186.651529,33.3318843 187.28,31.43 C187.943123,29.4543098 188.280856,27.3840065 188.28,25.3 C188.295804,22.7239522 187.785376,20.1718118 186.78,17.8 C185.825857,15.5251295 184.44423,13.4543862 182.71,11.7 C180.968222,9.96611101 178.915884,8.57527018 176.66,7.6 C174.302673,6.59318458 171.763272,6.08258122 169.2,6.1 L146.07,6.09956889 L146.07,70.1 L156.89,70.1 L156.89,44.49 L164.2,44.49 L179.83,65.75 C180.715184,67.1306447 181.950448,68.2520432 183.41,69 C184.935831,69.7521143 186.619124,70.1292268 188.32,70.1 L196.47,70.1 L176.55,43 Z" id="Fill-21" fill="#FF7900" fill-rule="nonzero"></path>
                <path d="M312.94,36.51 C312.050921,35.8257675 311.10402,35.2201526 310.11,34.7 C309.17,34.21 308.19,33.7 307.19,33.31 C306.19,32.92 305.19,32.5 304.19,32.13 C303.19,31.76 302.19,31.38 301.19,30.98 C299.19,30.31 297.5,29.66 296.11,29.07 C294.962591,28.6068187 293.877526,28.0021385 292.88,27.27 C292.181356,26.7688607 291.617875,26.1023049 291.24,25.33 C290.874193,24.4641929 290.700206,23.5294408 290.73,22.59 C290.724636,21.7223928 290.952589,20.8692949 291.39,20.12 C291.870368,19.3128607 292.510023,18.611962 293.27,18.06 C294.133853,17.4389552 295.093072,16.9627233 296.11,16.65 C297.240674,16.3037114 298.417515,16.1317375 299.6,16.14 C300.579869,16.1618444 301.545474,16.3794454 302.44,16.78 C303.586387,17.2742856 304.67053,17.9019474 305.67,18.65 C306.895526,19.4149804 308.315466,19.8107582 309.76,19.79 C311.489839,19.8151754 313.167724,19.1988824 314.47,18.06 L317.47,15.82 L316.84,15.05 C315.91764,13.9411488 314.914932,12.9016753 313.84,11.94 C312.581591,10.8131313 311.218778,9.80860123 309.77,8.94 C308.244128,8.00671982 306.621246,7.24222167 304.93,6.66 C303.226226,6.06406219 301.434978,5.75650815 299.63,5.75 C297.252517,5.75575996 294.890591,6.13366817 292.63,6.87 C290.405774,7.59234742 288.32702,8.70282196 286.49,10.15 C284.64408,11.5763023 283.115026,13.3709817 282,15.42 C280.869754,17.653007 280.300022,20.1275656 280.34,22.63 C280.256667,25.1744624 280.784769,27.7018048 281.88,30 C282.862615,31.9334154 284.242776,33.6373175 285.93,35 C287.635406,36.3692799 289.515188,37.5058923 291.52,38.38 C293.52,39.27 295.6,40.14 297.71,40.98 C299.26,41.6 300.71,42.15 302.07,42.66 C303.397031,43.1459258 304.665041,43.7799307 305.85,44.55 C306.873891,45.1891119 307.763737,46.0212206 308.47,47 C309.142492,48.073032 309.473737,49.3247902 309.42,50.59 C309.453964,51.989169 309.108401,53.3714221 308.42,54.59 C307.724496,55.7659956 306.795385,56.7869959 305.69,57.59 C302.204817,60.064985 297.752315,60.740281 293.69,59.41 C292.46979,58.9406689 291.339839,58.2640514 290.35,57.41 L289.71,56.89 C288.327909,55.4167936 286.389846,54.5929355 284.37,54.62 C283.145281,54.6385828 281.960836,55.0603437 281,55.82 L278,57.53 L278.4,58.35 C278.508842,58.5726614 278.628999,58.7896113 278.76,59 L279.07,59.55 C279.46,60.27 279.84,60.9 280.19,61.44 C280.32,61.64 280.43,61.83 280.53,62.01 C280.776384,62.476437 281.071354,62.9155404 281.41,63.32 C282.047545,64.0665512 282.735846,64.7682179 283.47,65.42 C287.450168,68.8987873 292.595907,70.7485393 297.88,70.6 C300.700453,70.6063632 303.49995,70.1155203 306.15,69.15 C308.71371,68.2213751 311.086045,66.831865 313.15,65.05 C315.177722,63.3035898 316.8251,61.1592766 317.99,58.75 C319.209201,56.214796 319.828522,53.4329873 319.8,50.62 C319.97145,45.0842645 317.42442,39.8146771 312.98,36.51" id="Fill-22" fill="#FF7900"></path>
                <path d="M23.63,37.7 C23.5,37.53 23.37,37.38 23.24,37.23 C23.37,37.09 23.51,36.92 23.65,36.74 L46.05,6.1 L37.9,6.1 C36.2033033,6.06925994 34.5236655,6.44289366 33,7.19 C31.5319625,7.94853452 30.2953198,9.08845659 29.42,10.49 L12.31,33.86 C12.0113684,34.2660063 11.6766754,34.6442095 11.31,34.99 L11.25,35.05 L11.25,6.1 L0.48,6.1 L0.48,70.1 L11.3,70.1 L11.3,39.48 L11.38,39.56 C11.7222531,39.8649165 12.0368164,40.1995583 12.32,40.56 L30.82,65.7 C31.6972224,67.0999649 32.9333812,68.2394409 34.4,69 C35.92745,69.7464765 37.6101681,70.120033 39.31,70.09 L47.46,70.09 L23.63,37.7 Z" id="Fill-23" fill="#FF7900"></path>
                <path d="M242.8,69.48 C228.27,72.32 219,64.71 219,64.71 C219,64.71 225.88,58.09 226.73,56.82 C232.73,60.37 240.73,58.92 240.73,58.92 C249.42,56.85 252.95,51.53 252.95,51.53 L263,55.85 C259.44,60.94 253.6,67.37 242.78,69.48 L242.8,69.48 Z M223.48,30.81 L218.16,27.81 C221.141384,22.344772 226.393987,18.4840724 232.5,17.27 C233.854282,17.0059064 235.230236,16.8686458 236.61,16.86 L236.61,23 C241.604572,23.0437066 246.249741,25.5706187 249,29.74 L254.09,26.32 C258.003505,32.2267495 258.726778,39.6918275 256.02,46.24 L250.37,43.88 C248.837345,47.5474946 245.9299,50.4692972 242.27,52.02 C236.68549,54.2980827 230.279689,53.0098313 226.01,48.75 L221.68,53.12 C220.142616,51.5707543 218.854056,49.7930816 217.86,47.85 L223.31,45 C221.028298,40.5231485 221.091849,35.2109841 223.48,30.79 L223.48,30.81 Z M215.85,41.91 L206.08,47 C204.361735,40.9114261 204.438128,34.4562054 206.3,28.41 C206.3,28.41 213.77,33.14 215.94,33.82 C215.391195,36.4859123 215.36064,39.2325382 215.85,41.91 Z M242.85,6.71 C249.008653,7.9868107 254.660143,11.0350007 259.11,15.48 C259.11,15.48 251.51,19.98 249.91,21.61 C247.821982,19.8890468 245.416529,18.5945869 242.83,17.8 L242.85,6.71 Z M265.98,50.35 C270.032531,40.4831502 268.939187,29.2501626 263.06,20.35 L268.06,16.96 C261.054197,6.42309669 249.263198,0.0645802842 236.61,0 L236.61,6.09 C234.527869,6.09019931 232.45094,6.2978922 230.41,6.71 C221.184637,8.5675201 213.26258,14.4302819 208.79,22.71 L203.44,19.71 C197.384431,30.8831709 197.21986,44.3218886 203,55.64 L208.38,52.82 C209.879677,55.7414918 211.822697,58.4131448 214.14,60.74 L209.86,65.05 C209.86,65.05 220.25,76.49 236.58,76.2 C252.51,75.9 265.37,67.2 271.51,52.68 L265.98,50.35 Z" id="Fill-24" fill="#FF7900" fill-rule="nonzero"></path>
            </g>
        </g>
    </g>
</svg>